<?xml version="1.0" encoding="utf-8"?>
<?xml-stylesheet type="text/xsl" href="rss1.xsl"?>
<rss version="2.0" xmlns:atom="http://www.w3.org/2005/Atom" xmlns:content="http://purl.org/rss/1.0/modules/content/" xmlns:dc="http://purl.org/dc/elements/1.1/" xmlns:media="http://search.yahoo.com/mrss/">
<channel>
 <title>Getty</title>
 <link>http://www.gettyimg.com/</link>
 <atom:link href="http://www.gettyimg.com/" rel="self" type="application/rss+xml" />

 
                <item>
                <title><![CDATA[【HD Live Performances】HDTV - Mariah Carey - You’re Mine (Eternal) Live at BET Honors 24.02.2014.mpg]]></title>
                <link><![CDATA[https://sharemania.us/threads/mariah-carey-you%E2%80%99re-mine-eternal-live-at-bet-honors-24-02-2014-mpg.239640/]]></link>
                <description><![CDATA[<article>
<blockquote class="messageText SelectQuoteContainer ugc baseHtml">
<img src="https://i.imgur.com/fhIKv4s.jpeg" class="bbCodeImage LbImage" alt="[​IMG]" data-url="https://i.imgur.com/fhIKv4s.jpeg" style=""> <br>
<img src="https://i.imgur.com/473bnMa.jpeg" class="bbCodeImage LbImage" alt="[​IMG]" data-url="https://i.imgur.com/473bnMa.jpeg" style=""> <br>
Mariah Carey<br>
You’re Mine (Eternal)<br>
BET Honors 2014<br>
<div class="ToggleTriggerAnchor bbCodeSpoilerContainer">
<button type="button" class="button bbCodeSpoilerButton ToggleTrigger Tooltip JsOnly" data-target="> .SpoilerTarget"><span>Spoiler: <span class="SpoilerTitle">MediaInfo</span></span></button>
<div class="SpoilerTarget bbCodeSpoilerText">General<br>
Complete name : C:\Users\Admin\Videos\You’re Mine (Eternal) Live at BET Honors 24.02.2014.mpg<br>
Format : MPEG-PS<br>
File size : 315 MiB<br>
Duration : 3 min 38 s<br>
Overall bit rate mode : Variable<br>
Overall bit rate : 12.1 Mb/s<br>
Law rating : TV-PG<br>
<br>
Video<br>
ID : 224 (0xE0)<br>
Format : MPEG Video<br>
Format version : Version 2<br>
Format profile : Main@High<br>
Format settings : CustomMatrix / BVOP<br>
Format settings, BVOP : Yes<br>
Format settings, Matrix : Custom<br>
Format settings, GOP : Variable<br>
Format settings, picture struc : Frame<br>
Duration : 3 min 38 s<br>
Bit rate mode : Variable<br>
Bit rate : 11.5 Mb/s<br>
Maximum bit rate : 25.0 Mb/s<br>
Width : 1 920 pixels<br>
Height : 1 080 pixels<br>
Display aspect ratio : 16:9<br>
Frame rate : 29.970 (30000/1001) FPS<br>
Color space : YUV<br>
Chroma subsampling : 4:2:0<br>
Bit depth : 8 bits<br>
Scan type : Interlaced<br>
Scan order : Top Field First<br>
Compression mode : Lossy<br>
Bits/(Pixel*Frame) : 0.184<br>
Time code of first frame : 00:00:00;00<br>
Time code source : Group of pictures header<br>
Stream size : 299 MiB (95%)<br>
<br>
Audio<br>
ID : 189 (0xBD)-128 (0x80)<br>
Format : AC-3<br>
Format/Info : Audio Coding 3<br>
Commercial name : Dolby Digital<br>
Muxing mode : DVD-Video<br>
Duration : 3 min 38 s<br>
Bit rate mode : Constant<br>
Bit rate : 384 kb/s<br>
Channel(s) : 2 channels<br>
Channel layout : L R<br>
Sampling rate : 48.0 kHz<br>
Frame rate : 31.250 FPS (1536 SPF)<br>
Compression mode : Lossy<br>
Delay relative to video : 16 ms<br>
Stream size : 10.0 MiB (3%)<br>
Service kind : Complete Main<br>
<br>
Text #1<br>
ID : 224 (0xE0)-CC1<br>
Format : EIA-608<br>
Muxing mode : A/53 / DTVCC Transport<br>
Muxing mode, more info : Muxed in Video #1<br>
Duration : 3 min 38 s<br>
Duration of the visible conten : 3 min 34 s<br>
Start time (commands) : 3 s 937 ms<br>
Start time : 4 s 71 ms<br>
End time : 3 min 38 s<br>
Bit rate mode : Constant<br>
Stream size : 0.00 Byte (0%)<br>
Count of frames before first e : 294<br>
Type of the first event : PaintOn<br>
<br>
Text #2<br>
ID : 224 (0xE0)-1<br>
Format : EIA-708<br>
Muxing mode : A/53 / DTVCC Transport<br>
Muxing mode, more info : Muxed in Video #1<br>
Duration : 3 min 38 s<br>
Bit rate mode : Constant<br>
Stream size : 0.00 Byte (0%)</div>
</div><br>
<div class="bbCodeBlock bbCodeVfcHH HiddenContent">
<div class="attribution type">Hidden Content:</div>
<blockquote>You must either reply or click 'Like' to see the hidden information contained here.</blockquote>
</div>
<div class="messageTextEndMarker">&nbsp;</div>
</blockquote>
</article>]]></description>
                <author><![CDATA[BERNXMRG]]></author>
                </item>

                </channel></rss>